<svg width="281" height="309" viewBox="0 0 281 309" fill="none" xmlns="http://www.w3.org/2000/svg">
<path d="M3.77393 2.26367H15.7336L44.8412 79.7032V2.26367H53.4592V94.8315H41.4996L12.3919 17.392V94.8315H3.77393V2.26367Z" fill="white"/>
<path d="M82.7359 10.7581C76.287 10.7581 71.1573 14.1475 67.3466 20.9263C63.5652 27.7051 61.6746 36.9433 61.6746 48.6409C61.6746 60.2971 63.5652 69.5146 67.3466 76.2934C71.1573 83.0723 76.287 86.4617 82.7359 86.4617C89.1847 86.4617 94.2851 83.0723 98.0372 76.2934C101.819 69.5146 103.709 60.2971 103.709 48.6409C103.709 36.9433 101.819 27.7051 98.0372 20.9263C94.2851 14.1475 89.1847 10.7581 82.7359 10.7581ZM82.7359 0.589844C91.9401 0.589844 99.2977 4.9506 104.808 13.6721C110.319 22.3523 113.075 34.0086 113.075 48.6409C113.075 63.2318 110.319 74.8881 104.808 83.6096C99.2977 92.2898 91.9401 96.6299 82.7359 96.6299C73.5023 96.6299 66.1155 92.2898 60.5753 83.6096C55.0645 74.9294 52.3091 63.2732 52.3091 48.6409C52.3091 34.0086 55.0645 22.3523 60.5753 13.6721C66.1155 4.9506 73.5023 0.589844 82.7359 0.589844Z" fill="white"/>
<path d="M119.906 12.5559V47.3386H131.075C135.208 47.3386 138.403 45.8299 140.66 42.8125C142.917 39.7951 144.046 35.4963 144.046 29.9162C144.046 24.3775 142.917 20.0994 140.66 17.082C138.403 14.0646 135.208 12.5559 131.075 12.5559H119.906ZM111.024 2.26367H131.075C138.432 2.26367 143.987 4.61972 147.739 9.33182C151.52 14.0026 153.411 20.864 153.411 29.9162C153.411 39.0511 151.52 45.9539 147.739 50.6246C143.987 55.2954 138.432 57.6308 131.075 57.6308H119.906V94.8315H111.024V2.26367Z" fill="white"/>
<path d="M172.873 14.6019L160.826 60.6688H184.965L172.873 14.6019ZM167.861 2.26367H177.93L202.948 94.8315H193.715L187.735 71.0851H158.144L152.164 94.8315H142.798L167.861 2.26367Z" fill="white"/>
<path d="M204.777 2.26367H213.659V94.8315H204.777V2.26367Z" fill="white"/>
<path d="M227.677 2.26367H239.637L268.745 79.7032V2.26367H277.363V94.8315H265.403L236.295 17.392V94.8315H227.677V2.26367Z" fill="white"/>
<path d="M0.411621 152.27H12.3713L41.4789 229.709V152.27H50.0969V244.837H38.1373L9.0296 167.398V244.837H0.411621V152.27Z" fill="white"/>
<path d="M79.3736 160.764C72.9247 160.764 67.795 164.153 63.9843 170.932C60.2029 177.711 58.3122 186.949 58.3122 198.647C58.3122 210.303 60.2029 219.521 63.9843 226.299C67.795 233.078 72.9247 236.468 79.3736 236.468C85.8224 236.468 90.9228 233.078 94.6749 226.299C98.4563 219.521 100.347 210.303 100.347 198.647C100.347 186.949 98.4563 177.711 94.6749 170.932C90.9228 164.153 85.8224 160.764 79.3736 160.764ZM79.3736 150.596C88.5778 150.596 95.9353 154.956 101.446 163.678C106.957 172.358 109.712 184.014 109.712 198.647C109.712 213.238 106.957 224.894 101.446 233.615C95.9353 242.296 88.5778 246.636 79.3736 246.636C70.14 246.636 62.7531 242.296 57.213 233.615C51.7022 224.935 48.9468 213.279 48.9468 198.647C48.9468 184.014 51.7022 172.358 57.213 163.678C62.7531 154.956 70.14 150.596 79.3736 150.596Z" fill="white"/>
<path d="M152.424 231.631V206.769H137.915V196.477H161.218V236.22C157.789 239.65 154.007 242.254 149.874 244.032C145.741 245.768 141.329 246.636 136.639 246.636C126.38 246.636 118.348 242.42 112.544 233.987C106.77 225.514 103.882 213.734 103.882 198.647C103.882 183.518 106.77 171.738 112.544 163.306C118.348 154.832 126.38 150.596 136.639 150.596C140.919 150.596 144.979 151.34 148.819 152.828C152.688 154.316 156.25 156.506 159.503 159.4V172.73C156.22 168.803 152.732 165.848 149.039 163.864C145.345 161.88 141.461 160.888 137.387 160.888C129.355 160.888 123.317 164.05 119.272 170.374C115.256 176.698 113.248 186.122 113.248 198.647C113.248 211.13 115.256 220.533 119.272 226.857C123.317 233.181 129.355 236.344 137.387 236.344C140.523 236.344 143.323 235.972 145.785 235.228C148.247 234.442 150.46 233.243 152.424 231.631Z" fill="white"/>
<path d="M176.222 164.608L164.175 210.675H188.314L176.222 164.608ZM171.21 152.27H181.279L206.297 244.837H197.064L191.084 221.091H161.493L155.513 244.837H146.147L171.21 152.27Z" fill="white"/>
<path d="M208.134 152.27H217.016V244.837H208.134V152.27Z" fill="white"/>
<path d="M231.029 152.27H242.988L272.096 229.709V152.27H280.714V244.837H268.754L239.647 167.398V244.837H231.029V152.27Z" fill="white"/>
<path d="M75.5332 296.227C76.0816 296.481 76.613 297.023 77.1276 297.854C77.6506 298.685 78.1737 299.828 78.6967 301.282L81.2908 308.345H78.5449L76.128 301.715C75.5037 299.984 74.8963 298.835 74.3058 298.27C73.7237 297.704 72.9265 297.421 71.9142 297.421H69.1303V308.345H66.5742V282.499H72.3444C74.504 282.499 76.1153 283.116 77.1782 284.351C78.2412 285.586 78.7726 287.45 78.7726 289.943C78.7726 291.57 78.4942 292.92 77.9375 293.994C77.3891 295.067 76.5877 295.812 75.5332 296.227ZM69.1303 285.373V294.548H72.3444C73.5761 294.548 74.504 294.161 75.1283 293.388C75.761 292.603 76.0773 291.455 76.0773 289.943C76.0773 288.431 75.761 287.294 75.1283 286.533C74.504 285.759 73.5761 285.373 72.3444 285.373H69.1303Z" fill="white"/>
<path d="M95.6748 297.852V299.41H84.9696C85.0708 301.603 85.5517 303.276 86.4121 304.43C87.281 305.573 88.4874 306.144 90.0312 306.144C90.9254 306.144 91.7901 305.994 92.6252 305.694C93.4688 305.394 94.304 304.944 95.1307 304.344V307.356C94.2955 307.84 93.4393 308.21 92.5619 308.464C91.6846 308.718 90.7946 308.844 89.892 308.844C87.6311 308.844 85.8385 307.944 84.5141 306.144C83.198 304.344 82.54 301.908 82.54 298.839C82.54 295.665 83.1643 293.149 84.4128 291.291C85.6698 289.421 87.3612 288.486 89.487 288.486C91.3936 288.486 92.8994 289.329 94.0045 291.014C95.118 292.687 95.6748 294.967 95.6748 297.852ZM93.3465 296.917C93.3296 295.174 92.9711 293.784 92.2709 292.745C91.5792 291.706 90.6596 291.187 89.5123 291.187C88.2132 291.187 87.1714 291.689 86.3868 292.693C85.6107 293.697 85.1636 295.111 85.0455 296.934L93.3465 296.917Z" fill="white"/>
<path d="M105.379 298.596C103.498 298.596 102.195 298.89 101.469 299.479C100.744 300.068 100.381 301.072 100.381 302.491C100.381 303.622 100.651 304.522 101.191 305.192C101.739 305.85 102.482 306.179 103.418 306.179C104.709 306.179 105.742 305.555 106.518 304.309C107.303 303.051 107.695 301.383 107.695 299.306V298.596H105.379ZM110.023 297.28V308.342H107.695V305.4C107.164 306.577 106.501 307.448 105.708 308.014C104.915 308.568 103.945 308.844 102.798 308.844C101.347 308.844 100.191 308.291 99.3308 307.183C98.4788 306.063 98.0527 304.569 98.0527 302.699C98.0527 300.518 98.5842 298.873 99.6471 297.765C100.719 296.657 102.313 296.103 104.43 296.103H107.695V295.792C107.695 294.326 107.341 293.195 106.632 292.399C105.932 291.591 104.945 291.187 103.671 291.187C102.861 291.187 102.072 291.32 101.305 291.585C100.537 291.851 99.799 292.249 99.0904 292.78V289.837C99.9424 289.387 100.769 289.052 101.571 288.833C102.372 288.602 103.152 288.486 103.912 288.486C105.961 288.486 107.493 289.213 108.505 290.668C109.517 292.122 110.023 294.326 110.023 297.28V297.28Z" fill="white"/>
<path d="M123.198 291.898V281.407H125.526V308.344H123.198V305.436C122.708 306.59 122.088 307.449 121.338 308.015C120.595 308.569 119.701 308.846 118.655 308.846C116.942 308.846 115.546 307.911 114.466 306.041C113.395 304.172 112.859 301.714 112.859 298.667C112.859 295.62 113.395 293.162 114.466 291.292C115.546 289.422 116.942 288.488 118.655 288.488C119.701 288.488 120.595 288.77 121.338 289.336C122.088 289.89 122.708 290.744 123.198 291.898V291.898ZM115.264 298.667C115.264 301.01 115.614 302.85 116.314 304.189C117.023 305.516 117.993 306.18 119.224 306.18C120.456 306.18 121.426 305.516 122.135 304.189C122.843 302.85 123.198 301.01 123.198 298.667C123.198 296.324 122.843 294.489 122.135 293.162C121.426 291.823 120.456 291.154 119.224 291.154C117.993 291.154 117.023 291.823 116.314 293.162C115.614 294.489 115.264 296.324 115.264 298.667Z" fill="white"/>
<path d="M138.101 282.499H141.909L146.731 300.087L151.577 282.499H155.386V308.345H152.893V285.65L148.021 303.377H145.453L140.581 285.65V308.345H138.101V282.499Z" fill="white"/>
<path d="M165.721 291.187C164.473 291.187 163.486 291.856 162.76 293.195C162.035 294.522 161.672 296.346 161.672 298.665C161.672 300.985 162.031 302.814 162.748 304.153C163.473 305.48 164.464 306.144 165.721 306.144C166.962 306.144 167.944 305.475 168.67 304.136C169.395 302.797 169.758 300.974 169.758 298.665C169.758 296.369 169.395 294.551 168.67 293.212C167.944 291.862 166.962 291.187 165.721 291.187ZM165.721 288.486C167.746 288.486 169.336 289.387 170.492 291.187C171.648 292.987 172.226 295.48 172.226 298.665C172.226 301.839 171.648 304.332 170.492 306.144C169.336 307.944 167.746 308.844 165.721 308.844C163.688 308.844 162.094 307.944 160.938 306.144C159.791 304.332 159.217 301.839 159.217 298.665C159.217 295.48 159.791 292.987 160.938 291.187C162.094 289.387 163.688 288.486 165.721 288.486Z" fill="white"/>
<path d="M184.824 291.931C184.563 291.724 184.276 291.574 183.964 291.481C183.66 291.377 183.323 291.325 182.952 291.325C181.636 291.325 180.623 291.914 179.915 293.091C179.215 294.257 178.864 295.936 178.864 298.129V308.343H176.523V288.954H178.864V291.966C179.354 290.789 179.991 289.917 180.775 289.352C181.56 288.775 182.513 288.486 183.635 288.486C183.795 288.486 183.972 288.504 184.166 288.538C184.361 288.561 184.576 288.602 184.812 288.659L184.824 291.931Z" fill="white"/>
<path d="M198.921 297.852V299.41H188.215C188.316 301.603 188.797 303.276 189.658 304.43C190.527 305.573 191.733 306.144 193.277 306.144C194.171 306.144 195.036 305.994 195.871 305.694C196.714 305.394 197.55 304.944 198.376 304.344V307.356C197.541 307.84 196.685 308.21 195.808 308.464C194.93 308.718 194.04 308.844 193.138 308.844C190.877 308.844 189.084 307.944 187.76 306.144C186.444 304.344 185.786 301.908 185.786 298.839C185.786 295.665 186.41 293.149 187.658 291.291C188.915 289.421 190.607 288.486 192.733 288.486C194.639 288.486 196.145 289.329 197.25 291.014C198.364 292.687 198.921 294.967 198.921 297.852ZM196.592 296.917C196.575 295.174 196.217 293.784 195.517 292.745C194.825 291.706 193.905 291.187 192.758 291.187C191.459 291.187 190.417 291.689 189.632 292.693C188.856 293.697 188.409 295.111 188.291 296.934L196.592 296.917Z" fill="white"/>
</svg>
