<svg width="863" height="299" viewBox="0 0 863 299" fill="none" xmlns="http://www.w3.org/2000/svg">
<path d="M168.664 252.262L173.934 174.966H126.514L128.695 142.968H204.856L196.432 266.526C184.496 277.192 171.586 285.288 157.702 290.814C143.826 296.211 129.224 298.91 113.896 298.91C80.3664 298.91 55.011 285.802 37.83 259.587C20.7535 233.243 13.8142 196.619 17.012 149.714C20.2186 102.681 32.1517 66.0569 52.8115 39.8417C73.5758 13.498 100.723 0.326172 134.253 0.326172C148.239 0.326172 161.35 2.63928 173.584 7.26549C185.914 11.8917 197.09 18.7025 207.11 27.6979L204.285 69.1411C194.387 56.933 183.614 47.7449 171.963 41.5766C160.313 35.4083 147.83 32.3241 134.514 32.3241C108.265 32.3241 87.86 42.1548 73.2993 61.8162C58.8343 81.4776 50.2745 110.777 47.6199 149.714C44.9741 188.523 49.5432 217.758 61.3272 237.42C73.2071 257.081 92.2716 266.912 118.521 266.912C128.771 266.912 137.999 265.755 146.204 263.442C154.417 261 161.904 257.274 168.664 252.262Z" fill="white"/>
<path d="M193.071 5.53223H329.975L327.72 38.3012H220.112L214.249 123.501H317.362L315.108 156.27H211.995L204.82 260.552H315.039L312.784 293.321H173.27L193.071 5.53223Z" fill="white"/>
<path d="M298.984 5.53223H480.449L478.215 38.3012H402.066L384.682 293.321H355.516L372.9 38.3012H296.751L298.984 5.53223Z" fill="white"/>
<path d="M499.527 5.53223H624.521L622.256 38.3012H526.69L520.828 123.115H607.071L604.806 155.884H518.563L509.064 293.321H479.636L499.527 5.53223Z" fill="white"/>
<path d="M636.183 5.53223H668.32L646.597 293.321H614.461L636.183 5.53223Z" fill="white"/>
<path d="M674.178 5.53223H855.643L853.409 38.3012H777.26L759.876 293.321H730.71L748.094 38.3012H671.944L674.178 5.53223Z" fill="white"/>
</svg>
